<?xml version="1.0" encoding="utf-8"?>
<!-- Generator: Adobe Illustrator 18.0.0, SVG Export Plug-In . SVG Version: 6.00 Build 0)  -->
<!DOCTYPE svg PUBLIC "-//W3C//DTD SVG 1.1//EN" "http://www.w3.org/Graphics/SVG/1.1/DTD/svg11.dtd">
<svg version="1.1" id="Layer_1" xmlns="http://www.w3.org/2000/svg" xmlns:xlink="http://www.w3.org/1999/xlink" x="0px" y="0px"
	 viewBox="0 0 85 25.2" enable-background="new 0 0 85 25.2" xml:space="preserve">
<g id="White">
	<path fill="#FFFFFF" d="M12.6,0C5.7,0,0,5.7,0,12.6c0,7,5.7,12.6,12.6,12.6c7,0,12.6-5.7,12.6-12.6C25.2,5.7,19.6,0,12.6,0z M8.1,3
		l7.4,12.9h-13c-0.3-1-0.5-2.1-0.5-3.3C2,8.4,4.5,4.7,8.1,3z M12.6,23.2c-4,0-7.5-2.2-9.3-5.5h13.3l5.3-10.2
		c0.8,1.5,1.3,3.2,1.3,5.1C23.2,18.5,18.5,23.2,12.6,23.2z"/>
	<g>
		<path fill="#FFFFFF" d="M31,21.5v-2.9h1c0.9,0,1.5,0.6,1.5,1.5c0,0.8-0.6,1.5-1.5,1.5H31z M33.1,20c0-0.6-0.4-1.1-1.1-1.1h-0.6
			v2.3h0.6C32.7,21.2,33.1,20.7,33.1,20z"/>
		<path fill="#FFFFFF" d="M41.9,21.5v-2.9h1.9v0.3h-1.5v0.9h1.5v0.3h-1.5v1h1.5v0.3H41.9z"/>
		<path fill="#FFFFFF" d="M52,21.1l0.2-0.3c0.2,0.2,0.5,0.4,0.9,0.4c0.5,0,0.7-0.3,0.7-0.5c0-0.8-1.7-0.3-1.7-1.4
			c0-0.5,0.4-0.8,1-0.8c0.4,0,0.8,0.1,1,0.4l-0.2,0.3c-0.2-0.2-0.5-0.3-0.8-0.3c-0.3,0-0.6,0.2-0.6,0.5c0,0.7,1.7,0.3,1.7,1.4
			c0,0.4-0.3,0.9-1.1,0.9C52.6,21.5,52.3,21.3,52,21.1z"/>
		<path fill="#FFFFFF" d="M62.6,21.5v-2.9H63v2.9H62.6z"/>
		<path fill="#FFFFFF" d="M71.4,20c0-0.9,0.7-1.5,1.5-1.5c0.5,0,0.9,0.2,1.1,0.5l-0.3,0.2c-0.2-0.2-0.5-0.4-0.8-0.4
			c-0.6,0-1.1,0.5-1.1,1.2c0,0.7,0.5,1.2,1.1,1.2c0.3,0,0.6-0.2,0.8-0.3v-0.6h-1V20H74V21c-0.3,0.3-0.7,0.5-1.1,0.5
			C72,21.5,71.4,20.9,71.4,20z"/>
		<path fill="#FFFFFF" d="M84.5,21.5l-1.7-2.3v2.3h-0.4v-2.9h0.4l1.7,2.3v-2.3h0.4v2.9H84.5z"/>
	</g>
	<g>
		<path fill="#FFFFFF" d="M35.6,12.6l1.6,1.9v1.4h3.4v-1.3h-1.5l0,0l-1.8-2.1l0.1,0c1.3-0.5,2-1.5,2-2.8c0-1.9-1.4-3.1-3.5-3.1h-4.9
			v1.3h1.2v6.8h-1.2v1.3h4v-1.3h-1.3v-2H35.6z M33.6,7.9h2.2c1.2,0,2.1,0.7,2.1,1.8c0,1.1-0.8,1.8-2.1,1.8h-2.2V7.9z"/>
		<polygon fill="#FFFFFF" points="50.9,6.5 46.4,6.5 46.4,7.8 47.7,7.8 45.5,11.3 43.3,7.8 44.6,7.8 44.6,6.5 40.2,6.5 40.2,7.8 
			41.6,7.8 41.6,7.8 44.7,12.7 44.7,14.6 43.4,14.6 43.4,15.9 47.6,15.9 47.6,14.6 46.3,14.6 46.3,12.7 46.3,12.7 49.4,7.8 
			50.9,7.8 		"/>
		<path fill="#FFFFFF" d="M57,10.7l-1.5-0.2c-0.8-0.1-1.8-0.4-1.8-1.4c0-0.9,0.7-1.4,1.9-1.4c1.2,0,2.1,0.5,2.7,1.6h1.4V6.5h-1.3v1
			l-0.2-0.2c-0.6-0.7-1.5-1-2.8-1c-2.1,0-3.4,1.1-3.4,2.8c0,1.5,1,2.4,2.8,2.6l1.9,0.3c1.4,0.2,1.6,1,1.6,1.4c0,0.8-0.8,1.3-1.9,1.3
			c-1.5,0-2.3-0.6-3.1-1.8h-1.4v2.9h1.4v-1.2l0.2,0.2c0.7,0.8,1.7,1.2,3,1.2c2.1,0,3.4-1,3.4-2.8C59.9,11.9,58.9,11,57,10.7z"/>
		<polygon fill="#FFFFFF" points="66.3,11.5 68.7,14.6 67.5,14.6 67.5,15.9 72.3,15.9 72.3,14.6 70.5,14.6 67.4,10.5 70.4,7.8 
			71.8,7.8 71.8,6.5 67.2,6.5 67.2,7.8 68.6,7.8 64.3,11.6 64.3,7.8 65.5,7.8 65.5,6.5 61.6,6.5 61.6,7.8 62.8,7.8 62.8,14.6 
			61.6,14.6 61.6,15.9 65.5,15.9 65.5,14.6 64.3,14.6 64.3,13.4 		"/>
		<path fill="#FFFFFF" d="M73.9,15.9h3.8v-1.3h-1.3l0.7-1.6h4.4l0.7,1.6h-1.5v1.3h4.1v-1.3h-1.1l0-0.1L80,6.5h-3.5v1.3H78l-3.2,6.8
			h-0.9V15.9z M79.3,8.2l1.6,3.6h-3.2L79.3,8.2z"/>
	</g>
</g>
</svg>
